HIERARCHY
ROOT Hips
{
	OFFSET -0.001795 -0.223333 0.028219
	CHANNELS 6 Xposition Yposition Zposition Zrotation Yrotation Xrotation 
	JOINT LeftUpLeg
	{
		OFFSET 0.069520 -0.091406 -0.006815
		CHANNELS 3 Zrotation Yrotation Xrotation
		JOINT LeftLeg
		{
			OFFSET 0.034277 -0.375199 -0.004496
			CHANNELS 3 Zrotation Yrotation Xrotation
			JOINT LeftFoot
			{
				OFFSET -0.013596 -0.397961 -0.043693
				CHANNELS 3 Zrotation Yrotation Xrotation
				JOINT LeftToe
				{
					OFFSET 0.026358 -0.055791 0.119288
					CHANNELS 3 Zrotation Yrotation Xrotation
					End Site
					{
						OFFSET 0.000000 0.000000 0.000000
					}
				}
			}
		}
	}
	JOINT RightUpLeg
	{
		OFFSET -0.067670 -0.090522 -0.004320
		CHANNELS 3 Zrotation Yrotation Xrotation
		JOINT RightLeg
		{
			OFFSET -0.038290 -0.382569 -0.008850
			CHANNELS 3 Zrotation Yrotation Xrotation
			JOINT RightFoot
			{
				OFFSET 0.015774 -0.398415 -0.042312
				CHANNELS 3 Zrotation Yrotation Xrotation
				JOINT RightToe
				{
					OFFSET -0.025372 -0.048144 0.123348
					CHANNELS 3 Zrotation Yrotation Xrotation
					End Site
					{
						OFFSET 0.000000 0.000000 0.000000
					}
				}
			}
		}
	}
	JOINT Spine
	{
		OFFSET -0.002533 0.108963 -0.026696
		CHANNELS 3 Zrotation Yrotation Xrotation
		JOINT Spine1
		{
			OFFSET 0.005487 0.135180 0.001092
			CHANNELS 3 Zrotation Yrotation Xrotation
			JOINT Spine2
			{
				OFFSET 0.001457 0.052922 0.025425
				CHANNELS 3 Zrotation Yrotation Xrotation
				JOINT Neck
				{
					OFFSET -0.002778 0.213870 -0.042857
					CHANNELS 3 Zrotation Yrotation Xrotation
					JOINT Head
					{
						OFFSET 0.005152 0.064970 0.051349
						CHANNELS 3 Zrotation Yrotation Xrotation
						End Site
						{
							OFFSET 0.000000 0.000000 0.000000
						}
					}
				}
				JOINT LeftShoulder
				{
					OFFSET 0.078845 0.121749 -0.034090
					CHANNELS 3 Zrotation Yrotation Xrotation
					JOINT LeftArm
					{
						OFFSET 0.090977 0.030469 -0.008868
						CHANNELS 3 Zrotation Yrotation Xrotation
						JOINT LeftForeArm
						{
							OFFSET 0.259612 -0.012772 -0.027456
							CHANNELS 3 Zrotation Yrotation Xrotation
							JOINT LeftHand
							{
								OFFSET 0.249234 0.008986 -0.001171
								CHANNELS 3 Zrotation Yrotation Xrotation
								End Site
								{
									OFFSET 0.000000 0.000000 0.000000
								}
							}
						}
					}
				}
				JOINT RightShoulder
				{
					OFFSET -0.081759 0.118833 -0.038615
					CHANNELS 3 Zrotation Yrotation Xrotation
					JOINT RightArm
					{
						OFFSET -0.096012 0.032551 -0.009143
						CHANNELS 3 Zrotation Yrotation Xrotation
						JOINT RightForeArm
						{
							OFFSET -0.253742 -0.013329 -0.021401
							CHANNELS 3 Zrotation Yrotation Xrotation
							JOINT RightHand
							{
								OFFSET -0.255298 0.007772 -0.005559
								CHANNELS 3 Zrotation Yrotation Xrotation
								End Site
								{
									OFFSET 0.000000 0.000000 0.000000
								}
							}
						}
					}
				}
			}
		}
	}
}
MOTION
Frames: 13
Frame Time: 0.050000
0.000000 0.939507 0.000000 -0.391139 -14.017938 2.676094 6.899808 -0.104449 -10.770855 -4.138008 0.651644 3.621910 8.280327 16.346620 17.302651 0.000000 0.000000 0.000000 0.671467 0.153139 -1.988838 3.302542 -0.214121 1.115581 -7.041370 -17.921717 6.771670 0.000000 0.000000 0.000000 4.914523 -0.479624 5.237889 -6.585197 3.010775 -2.157081 0.726161 6.345656 10.530917 5.486487 -2.329302 -17.209517 0.000000 0.000000 0.000000 -29.158315 -2.554899 -0.398278 -44.092188 5.926317 -7.832838 -96.242204 -57.893643 68.404291 0.000000 0.000000 0.000000 29.492160 -1.706802 -4.483123 51.206423 -12.485165 -10.381007 91.560360 52.497232 55.422070 0.000000 0.000000 0.000000 
-0.005936 0.939442 -0.002717 -1.155618 -13.576046 2.180794 8.340409 0.070263 -10.095549 -4.508130 0.707031 3.464870 7.907083 15.871829 17.244898 0.000000 0.000000 0.000000 2.411892 -0.091688 -0.248236 2.471648 -0.194026 -0.783453 -7.022216 -17.930084 7.209181 0.000000 0.000000 0.000000 6.108934 -0.500718 4.896151 -6.831904 3.314858 -0.219851 0.840067 6.620076 9.454445 5.122479 -2.036247 -16.913958 0.000000 0.000000 0.000000 -29.664093 -0.199567 -2.365355 -42.014565 7.935061 -7.906855 -103.269308 -52.598556 68.605219 0.000000 0.000000 0.000000 27.617697 -3.033069 -4.807030 53.083565 -14.602606 -11.721573 98.568562 49.033070 57.668881 0.000000 0.000000 0.000000 
-0.011002 0.940118 -0.005127 -0.603002 -12.286621 2.237513 7.821303 -0.033437 -10.123974 -4.061688 0.594433 2.557551 7.153611 14.923039 17.744445 0.000000 0.000000 0.000000 2.323688 -0.040944 -0.641001 2.464211 -0.195788 -0.498728 -7.645038 -19.100824 7.444568 0.000000 0.000000 0.000000 6.255700 -0.470941 4.396439 -5.893011 2.895571 0.375038 -1.321172 6.367830 9.110466 6.026193 -2.979197 -13.448541 0.000000 0.000000 0.000000 -28.388045 0.524866 -3.021647 -41.618162 11.848980 -8.951073 -105.290580 -50.278155 67.399870 0.000000 0.000000 0.000000 28.015159 -3.352592 -4.777339 52.079959 -17.016215 -12.496553 102.729000 46.982697 59.173357 0.000000 0.000000 0.000000 
-0.015622 0.939570 -0.006822 -0.452307 -13.479460 1.973005 8.481259 0.085768 -10.205874 -4.857892 0.768754 3.493084 7.691131 15.557721 18.132044 0.000000 0.000000 0.000000 2.259801 -0.030155 -0.739344 2.675351 -0.193895 -0.007814 -7.203083 -18.168264 6.711587 0.000000 0.000000 0.000000 6.413705 -0.448607 4.194297 -6.334278 3.097832 0.099462 -0.620832 7.431895 9.503090 5.943488 -2.792747 -14.197788 0.000000 0.000000 0.000000 -29.096787 2.087122 -4.232045 -40.347943 16.542552 -10.042117 -110.298269 -44.922276 65.445656 0.000000 0.000000 0.000000 28.195426 -4.548665 -5.466886 51.645494 -18.230392 -12.917532 109.787092 43.861165 61.852563 0.000000 0.000000 0.000000 
-0.019690 0.939656 -0.007958 -0.238527 -13.544941 1.358071 8.127199 0.056179 -9.965282 -4.150242 0.659603 4.173872 7.671461 15.513462 18.319128 0.000000 0.000000 0.000000 2.142186 -0.009736 -0.851344 2.977992 -0.191462 1.293483 -7.291424 -18.256041 6.339476 0.000000 0.000000 0.000000 6.744992 -0.499296 4.770644 -6.439898 3.163345 0.186643 -1.111514 6.860290 9.892020 5.864634 -2.744662 -14.670624 0.000000 0.000000 0.000000 -28.207622 3.089410 -4.535018 -41.232587 19.765546 -11.361438 -112.104801 -43.475312 65.621029 0.000000 0.000000 0.000000 27.930731 -4.550794 -5.600747 51.260463 -18.159212 -12.789614 112.739218 41.482379 61.218355 0.000000 0.000000 0.000000 
-0.023349 0.939034 -0.008514 0.088567 -14.082228 0.740481 7.985910 0.063364 -9.095366 -4.065616 0.646487 3.918387 7.894076 15.777087 18.484868 0.000000 0.000000 0.000000 1.600237 -0.030325 -0.437693 3.683139 -0.238336 1.635043 -7.130307 -17.815355 5.750177 0.000000 0.000000 0.000000 6.831320 -0.560630 5.608164 -7.020749 3.356002 -0.875588 -0.644245 7.382725 10.915365 5.677717 -2.492458 -15.756255 0.000000 0.000000 0.000000 -28.132725 2.959551 -4.420890 -42.602392 21.304742 -12.358999 -112.803383 -43.218677 66.095901 0.000000 0.000000 0.000000 27.650076 -4.750648 -5.617708 51.459166 -16.937487 -12.451373 116.486504 40.196575 63.348854 0.000000 0.000000 0.000000 
-0.026709 0.938278 -0.008791 0.203441 -13.935493 0.009745 8.161258 0.094413 -8.113852 -4.212829 0.664231 3.565058 7.744719 15.603519 18.326749 0.000000 0.000000 0.000000 1.310072 -0.024554 -0.335555 4.421124 -0.286760 2.927345 -7.319207 -18.063703 5.264623 0.000000 0.000000 0.000000 7.092800 -0.580096 5.884979 -6.979164 3.360780 -0.682045 -0.729203 6.973257 11.006759 5.707218 -2.471615 -16.337765 0.000000 0.000000 0.000000 -28.008158 3.229992 -4.462291 -43.704124 21.698543 -12.893782 -113.352550 -44.795509 68.984099 0.000000 0.000000 0.000000 27.367317 -4.131359 -5.271371 51.324822 -14.377201 -11.378761 118.247027 41.161509 66.510646 0.000000 0.000000 0.000000 
-0.029580 0.937667 -0.009262 0.236160 -13.045254 -0.778090 8.177250 0.088569 -7.768500 -4.011698 0.628898 4.175457 7.238948 14.998849 17.920966 0.000000 0.000000 0.000000 1.414325 -0.048860 -0.079153 4.680933 -0.311112 4.099566 -7.806388 -18.961979 5.093085 0.000000 0.000000 0.000000 7.443618 -0.636716 6.497292 -7.075759 3.383182 -1.002975 -0.709877 6.754258 11.237154 6.231651 -2.672806 -17.179243 0.000000 0.000000 0.000000 -28.688107 1.448665 -3.481243 -44.683903 19.751052 -12.589833 -113.532843 -48.482952 74.022804 0.000000 0.000000 0.000000 27.166983 -3.408689 -4.672079 51.765478 -10.684200 -10.037157 121.107554 43.500372 73.466754 0.000000 0.000000 0.000000 
-0.031631 0.937022 -0.010285 0.346798 -12.171346 -1.290198 8.453263 0.101034 -8.350611 -4.475824 0.740874 5.757223 6.749492 14.403399 17.579739 0.000000 0.000000 0.000000 1.125079 -0.058524 0.171874 5.406640 -0.398173 4.601268 -8.214720 -19.744619 5.026870 0.000000 0.000000 0.000000 7.771307 -0.669233 6.764435 -6.759586 3.247316 -0.819494 -1.084947 6.315299 10.628967 5.953198 -2.395959 -17.733813 0.000000 0.000000 0.000000 -29.393377 -0.157490 -2.595937 -45.805610 15.977723 -11.586659 -111.096275 -53.132103 77.220543 0.000000 0.000000 0.000000 27.118481 -1.777987 -3.598423 52.387882 -5.909559 -8.154755 120.539318 48.388339 79.876520 0.000000 0.000000 0.000000 
-0.032634 0.937013 -0.012013 0.207254 -11.025189 -1.428462 8.966599 0.128210 -9.574854 -5.005985 0.881462 7.630419 6.101861 13.605999 17.384672 0.000000 0.000000 0.000000 1.334277 -0.017271 -0.291494 5.663309 -0.443515 5.622365 -8.756524 -20.864055 5.378236 0.000000 0.000000 0.000000 8.133343 -0.731143 7.174676 -6.288918 2.979662 -1.278370 -1.339770 5.457919 10.281090 5.401588 -1.904782 -19.085218 0.000000 0.000000 0.000000 -30.727437 -0.748936 -2.292587 -45.056169 13.604329 -10.553484 -111.951292 -55.944140 81.602186 0.000000 0.000000 0.000000 26.394503 0.902650 -1.894408 52.882282 -1.036203 -6.143556 120.239542 54.160401 87.179602 0.000000 0.000000 0.000000 
-0.032410 0.937505 -0.013313 0.444450 -10.865400 -1.606001 9.088338 0.143759 -10.205479 -6.200259 1.206364 9.238811 6.574836 14.298182 16.340138 0.000000 0.000000 0.000000 0.985224 0.015148 -0.487960 5.857503 -0.469146 6.074968 -8.834788 -21.038244 5.528617 0.000000 0.000000 0.000000 8.830684 -0.782711 7.399953 -6.979785 3.242740 -2.205224 -0.884985 6.700717 10.754285 5.219196 -1.609878 -19.438781 0.000000 0.000000 0.000000 -30.695155 -3.844564 -0.693862 -46.066004 11.245544 -9.902240 -112.187973 -58.405209 84.363909 0.000000 0.000000 0.000000 26.384772 1.040046 -1.336539 52.467692 2.878288 -4.615445 121.748054 58.062072 94.882559 0.000000 0.000000 0.000000 
-0.031128 0.938844 -0.013641 0.527916 -10.631320 -2.219738 8.820903 0.115404 -10.254660 -8.113524 1.817798 11.842027 10.651714 20.210490 17.955027 0.000000 0.000000 0.000000 1.297263 0.008020 -0.482158 5.027600 -0.356366 7.175190 -8.986197 -21.373068 6.008388 0.000000 0.000000 0.000000 8.707376 -0.851925 8.301395 -6.047101 2.766707 -2.736204 -1.199854 6.856098 10.518501 6.059666 -1.845776 -21.108856 0.000000 0.000000 0.000000 -30.912171 -3.720165 -0.956976 -46.683027 10.231616 -9.633991 -111.410669 -58.089857 82.989350 0.000000 0.000000 0.000000 25.902385 2.578359 -0.239309 52.900482 5.688616 -3.447473 122.640000 59.424768 97.861045 0.000000 0.000000 0.000000 
-0.028982 0.939636 -0.013037 0.847730 -10.330483 -2.851665 8.230598 0.046845 -9.852736 -10.411381 2.581319 13.746019 16.533199 26.963092 25.443376 0.000000 0.000000 0.000000 0.646792 -0.083832 0.703289 5.305266 -0.411376 6.233338 -8.990164 -21.382499 6.249540 0.000000 0.000000 0.000000 8.219996 -0.869034 8.912541 -6.187501 2.816219 -3.059040 -0.883639 7.356978 10.807573 7.402014 -2.500982 -21.540431 0.000000 0.000000 0.000000 -30.545893 -5.305153 -0.097238 -47.583916 8.834377 -9.293404 -109.441174 -59.153407 81.885643 0.000000 0.000000 0.000000 27.117950 2.822792 0.073038 52.467188 7.065790 -2.938429 123.953939 60.038545 100.652997 0.000000 0.000000 0.000000 
